<?xml version="1.0" encoding="UTF-8"?>
<svg version="1.1" xmlns="http://www.w3.org/2000/svg" width="120" height="120">
<path d="M0 0 C39.6 0 79.2 0 120 0 C120 39.6 120 79.2 120 120 C80.4 120 40.8 120 0 120 C0 80.4 0 40.8 0 0 Z " fill="#000000" transform="translate(0,0)"/>
<path d="M0 0 C7.86589821 5.98575668 13.17313077 15.16681248 14.625 24.9375 C15.67529565 39.89311827 14.48280848 53.90226394 4.625 65.9375 C-4.26594856 74.79155665 -16.02517559 77.22952249 -28.140625 77.25439453 C-38.04397407 77.07208288 -46.06848059 73.61012047 -53.375 66.9375 C-63.97907292 55.85142377 -65.04061463 42.98164792 -64.75390625 28.3203125 C-64.43715856 21.76511129 -62.81829988 16.53399797 -59.375 10.9375 C-58.91738281 10.1846875 -58.45976563 9.431875 -57.98828125 8.65625 C-44.96419971 -10.46952453 -18.5945543 -11.66717132 0 0 Z " fill="#FBFBFB" transform="translate(84.375,24.0625)"/>
<path d="M0 0 C4.47196999 2.11673246 6.86281081 5.92918094 8.81640625 10.28125 C11.45173675 19.80357753 10.85503098 31.47131903 6.6953125 40.45703125 C4.22102633 44.76412198 1.51212526 46.45958623 -3.09375 47.94921875 C-8.4153764 49.17150043 -13.19741344 49.35556633 -18.1171875 46.76953125 C-22.86658308 43.32389132 -25.40287132 39.96925527 -27.3046875 34.45703125 C-27.7294383 30.86021291 -27.67488379 27.26412639 -27.6796875 23.64453125 C-27.71642578 22.2049707 -27.71642578 22.2049707 -27.75390625 20.73632812 C-27.77958574 14.46625384 -26.95271862 9.65985641 -23.3046875 4.45703125 C-16.68077036 -1.69374895 -8.72313149 -2.05511064 0 0 Z " fill="#030303" transform="translate(68.3046875,35.54296875)"/>
</svg>
