<svg xmlns="http://www.w3.org/2000/svg" xmlns:xlink="http://www.w3.org/1999/xlink" width="210" height="78" viewBox="0 0 210 78">
  <defs>
    <clipPath id="clip-path">
      <path id="Rectangle_7535" data-name="Rectangle 7535" d="M10,0H200a10,10,0,0,1,10,10V68a10,10,0,0,1-10,10H0a0,0,0,0,1,0,0V10A10,10,0,0,1,10,0Z" transform="translate(0.393 0.17)" fill="#81d737"/>
    </clipPath>
  </defs>
  <g id="Mask_Group_26" data-name="Mask Group 26" transform="translate(-0.393 -0.17)" clip-path="url(#clip-path)">
    <path id="Union_36" data-name="Union 36" d="M40.824,42.458,1.726,5.811A3,3,0,0,1,3.777.623H144.5L143.715,0h30.5L158.64,11.9l-.372-.3a2.988,2.988,0,0,1-1.992.757H77.035l-32.108,30.1a3,3,0,0,1-4.1,0Z" transform="translate(209.435 78.792) rotate(180)" fill="#81d737" opacity="0.1"/>
    <path id="Union_37" data-name="Union 37" d="M40.824,41.836,1.726,5.188A3,3,0,0,1,3.777,0h175.53a3,3,0,0,1,3,3V8.74a3,3,0,0,1-3,3H77.035l-32.108,30.1a3,3,0,0,1-4.1,0Z" transform="translate(182.307 87.506) rotate(180)" fill="#81d737" opacity="0.1"/>
  </g>
</svg>
